<svg width="209" height="275" viewBox="0 0 209 275" fill="none" xmlns="http://www.w3.org/2000/svg">
<path d="M98.2825 245.736C101.992 249.446 108.008 249.446 111.718 245.736L172.175 185.279C175.885 181.569 175.885 175.554 172.175 171.844C168.465 168.134 162.45 168.134 158.74 171.844L105 225.584L51.2599 171.844C47.5499 168.134 41.5348 168.134 37.8249 171.844C34.1149 175.554 34.1149 181.569 37.8249 185.279L98.2825 245.736ZM95.5 0L95.5 239.019H114.5L114.5 0L95.5 0Z" fill="black"/>
<line x1="2" y1="268" x2="209" y2="268" stroke="black" stroke-width="12"/>
<line x1="6" y1="274.004" x2="6" y2="139" stroke="black" stroke-width="12"/>
<line x1="203" y1="274.004" x2="203" y2="139" stroke="black" stroke-width="12"/>
</svg>
