<svg width="314" height="247" viewBox="0 0 314 247" fill="none" xmlns="http://www.w3.org/2000/svg">
<path id="upload" d="M101.839 4.16117C96.9573 -0.720388 89.0427 -0.720388 84.1612 4.16117L4.61165 83.7107C-0.269901 88.5922 -0.269901 96.5068 4.61165 101.388C9.49321 106.27 17.4078 106.27 22.2893 101.388L93 30.6777L163.711 101.388C168.592 106.27 176.507 106.27 181.388 101.388C186.27 96.5068 186.27 88.5922 181.388 83.7107L101.839 4.16117ZM105.5 232L105.5 13H80.5L80.5 232H105.5Z" fill="white"/>
<path id="download" d="M229.839 242.839C224.957 247.72 217.043 247.72 212.161 242.839L132.612 163.289C127.73 158.408 127.73 150.493 132.612 145.612C137.493 140.73 145.408 140.73 150.289 145.612L221 216.322L291.711 145.612C296.592 140.73 304.507 140.73 309.388 145.612C314.27 150.493 314.27 158.408 309.388 163.289L229.839 242.839ZM233.5 10L233.5 234H208.5L208.5 10L233.5 10Z" fill="white"/>
</svg>
