<svg width="209" height="279" viewBox="0 0 209 279" fill="none" xmlns="http://www.w3.org/2000/svg">
<path d="M111.718 3.28249C108.008 -0.427495 101.992 -0.427495 98.2825 3.28249L37.8249 63.7401C34.1149 67.4501 34.1149 73.4652 37.8249 77.1751C41.5348 80.8851 47.5499 80.8851 51.2599 77.1751L105 23.435L158.74 77.1751C162.45 80.8851 168.465 80.8851 172.175 77.1751C175.885 73.4652 175.885 67.4501 172.175 63.7401L111.718 3.28249ZM114.5 250L114.5 10H95.5L95.5 250H114.5Z" fill="black"/>
<line x1="2" y1="272" x2="209" y2="272" stroke="black" stroke-width="12"/>
<line x1="6" y1="278.004" x2="6" y2="143" stroke="black" stroke-width="12"/>
<line x1="203" y1="278.004" x2="203" y2="143" stroke="black" stroke-width="12"/>
</svg>
